<?xml version="1.0" encoding="UTF-8" standalone="no"?>
<svg
   viewBox="0 0 793.7007874015749 1122.5196850393702"
   width="793.7007874015749"
   height="1122.5196850393702"
   version="1.1"
   id="svg52"
   sodipodi:docname="plexiglas.svg"
   inkscape:version="1.2.1 (9c6d41e410, 2022-07-14)"
   xml:space="preserve"
   xmlns:inkscape="http://www.inkscape.org/namespaces/inkscape"
   xmlns:sodipodi="http://sodipodi.sourceforge.net/DTD/sodipodi-0.dtd"
   xmlns="http://www.w3.org/2000/svg"
   xmlns:svg="http://www.w3.org/2000/svg"><sodipodi:namedview
     id="namedview54"
     pagecolor="#ffffff"
     bordercolor="#000000"
     borderopacity="0.25"
     inkscape:showpageshadow="2"
     inkscape:pageopacity="0.0"
     inkscape:pagecheckerboard="0"
     inkscape:deskcolor="#d1d1d1"
     showgrid="false"
     inkscape:zoom="2.6299478"
     inkscape:cx="311.22291"
     inkscape:cy="790.12976"
     inkscape:window-width="1920"
     inkscape:window-height="1094"
     inkscape:window-x="-11"
     inkscape:window-y="-11"
     inkscape:window-maximized="1"
     inkscape:current-layer="g50" /><desc
     id="desc2">plexiglas.dxf - scale = 1.000000, origin = (0.000000, 0.000000), method = manual</desc><defs
     id="defs16"><marker
       id="DistanceX"
       orient="auto"
       refX="0.0"
       refY="0.0"
       style="overflow:visible"><path
         d="M 3,-3 L -3,3 M 0,-5 L  0,5"
         style="stroke:#000000; stroke-width:0.5"
         id="path4" /></marker><pattern
       id="Hatch"
       patternUnits="userSpaceOnUse"
       width="8"
       height="8"
       x="0"
       y="0"><path
         d="M8 4 l-4,4"
         stroke="#000000"
         stroke-width="0.25"
         linecap="square"
         id="path7" /><path
         d="M6 2 l-4,4"
         stroke="#000000"
         stroke-width="0.25"
         linecap="square"
         id="path9" /><path
         d="M4 0 l-4,4"
         stroke="#000000"
         stroke-width="0.25"
         linecap="square"
         id="path11" /></pattern><symbol
       id="*MODEL_SPACE" /><symbol
       id="*PAPER_SPACE" /><filter
       style="color-interpolation-filters:sRGB;"
       inkscape:label="Lightness-Contrast"
       id="filter71679"
       x="0"
       y="0"
       width="1"
       height="1"><feColorMatrix
         values="11 0 0 0 -5 0 11 0 0 -5 0 0 11 0 -5 0 0 0 1 0"
         id="feColorMatrix71677" /></filter><filter
       style="color-interpolation-filters:sRGB;"
       inkscape:label="Lightness-Contrast"
       id="filter73921"
       x="0"
       y="0"
       width="1"
       height="1"><feColorMatrix
         values="11 0 0 0 -5 0 11 0 0 -5 0 0 11 0 -5 0 0 0 1 0"
         id="feColorMatrix73919"
         result="fbSourceGraphic" /><feColorMatrix
         result="fbSourceGraphicAlpha"
         in="fbSourceGraphic"
         values="0 0 0 -1 0 0 0 0 -1 0 0 0 0 -1 0 0 0 0 1 0"
         id="feColorMatrix73935" /><feColorMatrix
         id="feColorMatrix73937"
         values="11 0 0 -6 -5 0 11 0 -6 -5 0 0 11 -6 -5 0 0 0 1 0"
         in="fbSourceGraphic"
         result="fbSourceGraphic" /><feColorMatrix
         result="fbSourceGraphicAlpha"
         in="fbSourceGraphic"
         values="0 0 0 -1 0 0 0 0 -1 0 0 0 0 -1 0 0 0 0 1 0"
         id="feColorMatrix73945" /><feColorMatrix
         id="feColorMatrix73947"
         values="11 0 0 -1.14983 -5 0 11 0 -1.14983 -5 0 0 11 -1.14983 -5 0 0 0 1 0"
         in="fbSourceGraphic"
         result="fbSourceGraphic" /><feColorMatrix
         result="fbSourceGraphicAlpha"
         in="fbSourceGraphic"
         values="0 0 0 -1 0 0 0 0 -1 0 0 0 0 -1 0 0 0 0 1 0"
         id="feColorMatrix73955" /><feColorMatrix
         id="feColorMatrix73957"
         values="11 0 0 -1.14983 -5 0 11 0 -1.14983 -5 0 0 11 -1.14983 -5 0 0 0 1 0"
         in="fbSourceGraphic"
         result="fbSourceGraphic" /><feColorMatrix
         result="fbSourceGraphicAlpha"
         in="fbSourceGraphic"
         values="0 0 0 -1 0 0 0 0 -1 0 0 0 0 -1 0 0 0 0 1 0"
         id="feColorMatrix73965" /><feColorMatrix
         id="feColorMatrix73967"
         values="11 0 0 2.06969 -5 0 11 0 2.06969 -5 0 0 11 2.06969 -5 0 0 0 1 0"
         in="fbSourceGraphic"
         result="fbSourceGraphic" /><feColorMatrix
         result="fbSourceGraphicAlpha"
         in="fbSourceGraphic"
         values="0 0 0 -1 0 0 0 0 -1 0 0 0 0 -1 0 0 0 0 1 0"
         id="feColorMatrix73975" /><feColorMatrix
         id="feColorMatrix73977"
         values="2.70732 0 0 0.639415 -0.853659 0 2.70732 0 0.639415 -0.853659 0 0 2.70732 0.639415 -0.853659 0 0 0 1 0"
         in="fbSourceGraphic" /></filter><filter
       inkscape:label="Greyscale"
       inkscape:menu="Color"
       inkscape:menu-tooltip="Light areas turn to black"
       style="color-interpolation-filters:sRGB;"
       id="filter74374"
       x="0"
       y="0"
       width="1"
       height="1"><feColorMatrix
         type="luminanceToAlpha"
         result="result2"
         id="feColorMatrix74366" /><feComposite
         in2="SourceGraphic"
         operator="arithmetic"
         in="result2"
         k3="2"
         result="result4"
         id="feComposite74368" /><feBlend
         in="result4"
         mode="multiply"
         result="result3"
         in2="result2"
         id="feBlend74370" /><feComposite
         in2="SourceGraphic"
         operator="in"
         in="result3"
         id="feComposite74372"
         result="fbSourceGraphic" /><feColorMatrix
         result="fbSourceGraphicAlpha"
         in="fbSourceGraphic"
         values="0 0 0 -1 0 0 0 0 -1 0 0 0 0 -1 0 0 0 0 1 0"
         id="feColorMatrix74757" /><feColorMatrix
         id="feColorMatrix74759"
         values="-10 -10 -10 0 0 -10 -10 -10 0 0 -10 -10 -10 0 0 0 0 0 1 0 "
         in="fbSourceGraphic"
         result="fbSourceGraphic" /><feColorMatrix
         result="fbSourceGraphicAlpha"
         in="fbSourceGraphic"
         values="0 0 0 -1 0 0 0 0 -1 0 0 0 0 -1 0 0 0 0 1 0"
         id="feColorMatrix74767" /><feColorMatrix
         id="feColorMatrix74769"
         values="10 10 10 0 0 10 10 10 0 0 10 10 10 0 0 0 0 0 1 0 "
         in="fbSourceGraphic"
         result="fbSourceGraphic" /><feColorMatrix
         result="fbSourceGraphicAlpha"
         in="fbSourceGraphic"
         values="0 0 0 -1 0 0 0 0 -1 0 0 0 0 -1 0 0 0 0 1 0"
         id="feColorMatrix74777" /><feColorMatrix
         id="feColorMatrix74779"
         values="10 10 10 0 0 10 10 10 0 0 10 10 10 0 0 0 0 0 1 0 "
         in="fbSourceGraphic"
         result="fbSourceGraphic" /><feColorMatrix
         result="fbSourceGraphicAlpha"
         in="fbSourceGraphic"
         values="0 0 0 -1 0 0 0 0 -1 0 0 0 0 -1 0 0 0 0 1 0"
         id="feColorMatrix74787" /><feColorMatrix
         id="feColorMatrix74789"
         values="10 10 10 10 0 10 10 10 10 0 10 10 10 10 0 0 0 0 1 0 "
         in="fbSourceGraphic"
         result="fbSourceGraphic" /><feColorMatrix
         result="fbSourceGraphicAlpha"
         in="fbSourceGraphic"
         values="0 0 0 -1 0 0 0 0 -1 0 0 0 0 -1 0 0 0 0 1 0"
         id="feColorMatrix74797" /><feColorMatrix
         id="feColorMatrix74799"
         values="10 10 10 3.06397 0 10 10 10 3.06397 0 10 10 10 3.06397 0 0 0 0 1 0 "
         in="fbSourceGraphic"
         result="fbSourceGraphic" /><feColorMatrix
         result="fbSourceGraphicAlpha"
         in="fbSourceGraphic"
         values="0 0 0 -1 0 0 0 0 -1 0 0 0 0 -1 0 0 0 0 1 0"
         id="feColorMatrix74807" /><feColorMatrix
         id="feColorMatrix74809"
         values="10 10 -3.53535 3.06397 0 10 10 -3.53535 3.06397 0 10 10 -3.53535 3.06397 0 0 0 0 1 0 "
         in="fbSourceGraphic"
         result="fbSourceGraphic" /><feColorMatrix
         result="fbSourceGraphicAlpha"
         in="fbSourceGraphic"
         values="0 0 0 -1 0 0 0 0 -1 0 0 0 0 -1 0 0 0 0 1 0"
         id="feColorMatrix74817" /><feColorMatrix
         id="feColorMatrix74819"
         values="10 -0.707071 -3.53535 3.06397 0 10 -0.707071 -3.53535 3.06397 0 10 -0.707071 -3.53535 3.06397 0 0 0 0 1 0 "
         in="fbSourceGraphic"
         result="fbSourceGraphic" /><feColorMatrix
         result="fbSourceGraphicAlpha"
         in="fbSourceGraphic"
         values="0 0 0 -1 0 0 0 0 -1 0 0 0 0 -1 0 0 0 0 1 0"
         id="feColorMatrix74827" /><feColorMatrix
         id="feColorMatrix74829"
         values="-1.38047 -0.707071 -3.53535 3.06397 0 -1.38047 -0.707071 -3.53535 3.06397 0 -1.38047 -0.707071 -3.53535 3.06397 0 0 0 0 1 0 "
         in="fbSourceGraphic" /></filter><filter
       style="color-interpolation-filters:sRGB;"
       inkscape:label="Fade to Black or White"
       id="filter75605"
       x="0"
       y="0"
       width="1"
       height="1"><feColorMatrix
         values="1 0 0 0 0 0 1 0 0 0 0 0 1 0 0 0 0 0 1 0"
         id="feColorMatrix75603"
         result="fbSourceGraphic" /><feColorMatrix
         result="fbSourceGraphicAlpha"
         in="fbSourceGraphic"
         values="0 0 0 -1 0 0 0 0 -1 0 0 0 0 -1 0 0 0 0 1 0"
         id="feColorMatrix75619" /><feColorMatrix
         id="feColorMatrix75621"
         values="0.375796 0 0 0 0 0 0.375796 0 0 0 0 0 0.375796 0 0 0 0 0 1 0"
         in="fbSourceGraphic" /></filter><filter
       style="color-interpolation-filters:sRGB;"
       inkscape:label="Duochrome"
       id="filter76399"
       x="0"
       y="0"
       width="1"
       height="1"><feColorMatrix
         type="luminanceToAlpha"
         result="colormatrix1"
         id="feColorMatrix76379" /><feFlood
         flood-opacity="1"
         flood-color="rgb(0,0,0)"
         result="flood1"
         id="feFlood76381" /><feComposite
         in2="colormatrix1"
         operator="out"
         result="composite1"
         id="feComposite76383" /><feFlood
         flood-opacity="1"
         flood-color="rgb(255,255,0)"
         result="flood2"
         id="feFlood76385" /><feComposite
         in2="colormatrix1"
         result="composite2"
         operator="in"
         id="feComposite76387" /><feComposite
         in="composite2"
         in2="composite1"
         k2="1"
         k3="1"
         operator="arithmetic"
         result="composite3"
         id="feComposite76389" /><feColorMatrix
         in="composite3"
         type="matrix"
         values="2 -1 0 0 0 0 2 -1 0 0 -1 0 2 0 0 0 0 0 1 0 "
         result="colormatrix2"
         id="feColorMatrix76391" /><feComposite
         in="colormatrix2"
         in2="composite3"
         operator="arithmetic"
         k2="0"
         result="composite4"
         id="feComposite76393" /><feBlend
         in="composite4"
         in2="composite3"
         mode="normal"
         result="blend"
         id="feBlend76395" /><feComposite
         in2="SourceGraphic"
         operator="in"
         id="feComposite76397"
         result="fbSourceGraphic" /><feColorMatrix
         result="fbSourceGraphicAlpha"
         in="fbSourceGraphic"
         values="0 0 0 -1 0 0 0 0 -1 0 0 0 0 -1 0 0 0 0 1 0"
         id="feColorMatrix76413" /><feColorMatrix
         id="feColorMatrix76415"
         type="luminanceToAlpha"
         result="colormatrix1"
         in="fbSourceGraphic" /><feFlood
         id="feFlood76417"
         flood-opacity="1"
         flood-color="rgb(0,0,0)"
         result="flood1" /><feComposite
         in2="colormatrix1"
         id="feComposite76419"
         operator="out"
         result="composite1" /><feFlood
         id="feFlood76421"
         flood-opacity="0"
         flood-color="rgb(0,0,0)"
         result="flood2" /><feComposite
         in2="colormatrix1"
         id="feComposite76423"
         result="composite2"
         operator="in" /><feComposite
         in2="composite1"
         id="feComposite76425"
         in="composite2"
         k2="1"
         k3="1"
         operator="arithmetic"
         result="composite3" /><feColorMatrix
         id="feColorMatrix76427"
         in="composite3"
         type="matrix"
         values="2 -1 0 0 0 0 2 -1 0 0 -1 0 2 0 0 0 0 0 1 0 "
         result="colormatrix2" /><feComposite
         in2="composite3"
         id="feComposite76429"
         in="colormatrix2"
         operator="arithmetic"
         k2="0"
         result="composite4" /><feBlend
         in2="composite3"
         id="feBlend76431"
         in="composite4"
         mode="normal"
         result="blend" /><feComposite
         in2="fbSourceGraphic"
         id="feComposite76433"
         operator="in"
         result="fbSourceGraphic" /><feColorMatrix
         result="fbSourceGraphicAlpha"
         in="fbSourceGraphic"
         values="0 0 0 -1 0 0 0 0 -1 0 0 0 0 -1 0 0 0 0 1 0"
         id="feColorMatrix79090" /><feColorMatrix
         id="feColorMatrix79092"
         type="luminanceToAlpha"
         result="colormatrix1"
         in="fbSourceGraphic" /><feFlood
         id="feFlood79094"
         flood-opacity="1"
         flood-color="rgb(255,255,255)"
         result="flood1" /><feComposite
         in2="colormatrix1"
         id="feComposite79096"
         operator="out"
         result="composite1" /><feFlood
         id="feFlood79098"
         flood-opacity="1"
         flood-color="rgb(0,0,0)"
         result="flood2" /><feComposite
         in2="colormatrix1"
         id="feComposite79100"
         result="composite2"
         operator="in" /><feComposite
         in2="composite1"
         id="feComposite79102"
         in="composite2"
         k2="1"
         k3="1"
         operator="arithmetic"
         result="composite3" /><feColorMatrix
         id="feColorMatrix79104"
         in="composite3"
         type="matrix"
         values="2 -1 0 0 0 0 2 -1 0 0 -1 0 2 0 0 0 0 0 1 0 "
         result="colormatrix2" /><feComposite
         in2="composite3"
         id="feComposite79106"
         in="colormatrix2"
         operator="arithmetic"
         k2="0"
         result="composite4" /><feBlend
         in2="composite3"
         id="feBlend79108"
         in="composite4"
         mode="normal"
         result="blend" /><feComposite
         in2="fbSourceGraphic"
         id="feComposite79110"
         operator="in"
         result="fbSourceGraphic" /><feColorMatrix
         result="fbSourceGraphicAlpha"
         in="fbSourceGraphic"
         values="0 0 0 -1 0 0 0 0 -1 0 0 0 0 -1 0 0 0 0 1 0"
         id="feColorMatrix79118" /><feColorMatrix
         id="feColorMatrix79120"
         type="luminanceToAlpha"
         result="colormatrix1"
         in="fbSourceGraphic" /><feFlood
         id="feFlood79122"
         flood-opacity="1"
         flood-color="rgb(255,255,255)"
         result="flood1" /><feComposite
         in2="colormatrix1"
         id="feComposite79124"
         operator="out"
         result="composite1" /><feFlood
         id="feFlood79126"
         flood-opacity="0"
         flood-color="rgb(0,0,0)"
         result="flood2" /><feComposite
         in2="colormatrix1"
         id="feComposite79128"
         result="composite2"
         operator="in" /><feComposite
         in2="composite1"
         id="feComposite79130"
         in="composite2"
         k2="1"
         k3="1"
         operator="arithmetic"
         result="composite3" /><feColorMatrix
         id="feColorMatrix79132"
         in="composite3"
         type="matrix"
         values="2 -1 0 0 0 0 2 -1 0 0 -1 0 2 0 0 0 0 0 1 0 "
         result="colormatrix2" /><feComposite
         in2="composite3"
         id="feComposite79134"
         in="colormatrix2"
         operator="arithmetic"
         k2="0"
         result="composite4" /><feBlend
         in2="composite3"
         id="feBlend79136"
         in="composite4"
         mode="normal"
         result="blend" /><feComposite
         in2="fbSourceGraphic"
         id="feComposite79138"
         operator="in"
         result="fbSourceGraphic" /><feColorMatrix
         result="fbSourceGraphicAlpha"
         in="fbSourceGraphic"
         values="0 0 0 -1 0 0 0 0 -1 0 0 0 0 -1 0 0 0 0 1 0"
         id="feColorMatrix79146" /><feColorMatrix
         id="feColorMatrix79148"
         type="luminanceToAlpha"
         result="colormatrix1"
         in="fbSourceGraphic" /><feFlood
         id="feFlood79150"
         flood-opacity="1"
         flood-color="rgb(0,0,0)"
         result="flood1" /><feComposite
         in2="colormatrix1"
         id="feComposite79152"
         operator="out"
         result="composite1" /><feFlood
         id="feFlood79154"
         flood-opacity="0"
         flood-color="rgb(0,0,0)"
         result="flood2" /><feComposite
         in2="colormatrix1"
         id="feComposite79156"
         result="composite2"
         operator="in" /><feComposite
         in2="composite1"
         id="feComposite79158"
         in="composite2"
         k2="1"
         k3="1"
         operator="arithmetic"
         result="composite3" /><feColorMatrix
         id="feColorMatrix79160"
         in="composite3"
         type="matrix"
         values="2 -1 0 0 0 0 2 -1 0 0 -1 0 2 0 0 0 0 0 1 0 "
         result="colormatrix2" /><feComposite
         in2="composite3"
         id="feComposite79162"
         in="colormatrix2"
         operator="arithmetic"
         k2="0"
         result="composite4" /><feBlend
         in2="composite3"
         id="feBlend79164"
         in="composite4"
         mode="normal"
         result="blend" /><feComposite
         in2="fbSourceGraphic"
         id="feComposite79166"
         operator="in"
         result="fbSourceGraphic" /><feColorMatrix
         result="fbSourceGraphicAlpha"
         in="fbSourceGraphic"
         values="0 0 0 -1 0 0 0 0 -1 0 0 0 0 -1 0 0 0 0 1 0"
         id="feColorMatrix79174" /><feColorMatrix
         id="feColorMatrix79176"
         type="luminanceToAlpha"
         result="colormatrix1"
         in="fbSourceGraphic" /><feFlood
         id="feFlood79178"
         flood-opacity="0"
         flood-color="rgb(0,0,0)"
         result="flood1" /><feComposite
         in2="colormatrix1"
         id="feComposite79180"
         operator="out"
         result="composite1" /><feFlood
         id="feFlood79182"
         flood-opacity="0"
         flood-color="rgb(0,0,0)"
         result="flood2" /><feComposite
         in2="colormatrix1"
         id="feComposite79184"
         result="composite2"
         operator="in" /><feComposite
         in2="composite1"
         id="feComposite79186"
         in="composite2"
         k2="1"
         k3="1"
         operator="arithmetic"
         result="composite3" /><feColorMatrix
         id="feColorMatrix79188"
         in="composite3"
         type="matrix"
         values="2 -1 0 0 0 0 2 -1 0 0 -1 0 2 0 0 0 0 0 1 0 "
         result="colormatrix2" /><feComposite
         in2="composite3"
         id="feComposite79190"
         in="colormatrix2"
         operator="arithmetic"
         k2="0"
         result="composite4" /><feBlend
         in2="composite3"
         id="feBlend79192"
         in="composite4"
         mode="normal"
         result="blend" /><feComposite
         in2="fbSourceGraphic"
         id="feComposite79194"
         operator="in" /></filter><filter
       style="color-interpolation-filters:sRGB;"
       inkscape:label="Lightness-Contrast"
       id="filter79954"
       x="0"
       y="0"
       width="1"
       height="1"><feColorMatrix
         values="10.9303 0 0 2.05767 -4.96516 0 10.9303 0 2.05767 -4.96516 0 0 10.9303 2.05767 -4.96516 0 0 0 1 0"
         id="feColorMatrix79952" /></filter><filter
       inkscape:label="Sharpen More"
       inkscape:menu="Image Effects"
       inkscape:menu-tooltip="Sharpen edges and boundaries within the object, force=0.3"
       style="color-interpolation-filters:sRGB;"
       id="filter82065"
       x="0"
       y="0"
       width="1"
       height="1"><feConvolveMatrix
         targetY="1"
         targetX="1"
         in="SourceGraphic"
         divisor="1"
         kernelMatrix="0 -0.3 0 -0.3 2.2 -0.3 0 -0.3 0"
         order="3 3"
         result="result1"
         id="feConvolveMatrix82061" /><feBlend
         in2="SourceGraphic"
         mode="normal"
         result="result2"
         id="feBlend82063" /></filter><clipPath
       clipPathUnits="userSpaceOnUse"
       id="clipPath84888"><path
         id="path84890"
         style="fill:#ff0000;fill-opacity:1;fill-rule:nonzero;stroke:none"
         d="m 513.69922,747.72461 v 1.28906 c 0.0682,-0.0121 0.13584,-0.0195 0.20312,-0.0195 0.26138,10e-6 0.52346,0.0911 0.83008,0.27148 0.73791,0.66033 0.43145,1.3829 0.0918,2.15235 -0.0935,0.18817 -0.1818,0.37796 -0.26367,0.57031 0.18558,0.23388 0.34326,0.48928 0.47851,0.75977 0.20696,0.43304 0.30599,0.90052 0.36719,1.37304 0.0497,0.50381 0.0584,1.00981 0.0684,1.51563 0.0102,0.50784 -0.0839,0.99883 -0.23047,1.48047 0.0294,0.10149 0.0593,0.20313 0.082,0.30859 0.0812,0.44764 0.14805,0.90963 -0.0547,1.31445 0.003,0.0228 0.007,0.0456 0.01,0.0684 0.0359,0.26215 0.0624,0.52559 0.0859,0.78907 0.14828,0.0925 0.29719,0.18402 0.44922,0.26953 h 2.34179 c 0.0593,-0.0493 0.11809,-0.0996 0.17383,-0.15039 0.71198,-0.64917 1.40334,-0.38682 1.4375,0.15039 h 6.1582 v -12.14258 z m 0.33984,2.64453 c -0.0134,-8.2e-4 -0.0844,0.036 -0.14648,0.0664 0.018,0.0142 0.0373,0.0211 0.0566,0.0137 0.079,-0.0598 0.0999,-0.0795 0.0898,-0.0801 z" /></clipPath><clipPath
       clipPathUnits="userSpaceOnUse"
       id="clipPath85760"><path
         id="path85762"
         style="fill:#ff0000;fill-opacity:1;fill-rule:nonzero;stroke:none"
         d="m 515.18164,876.66211 c -0.17218,0.21178 -0.34081,0.42664 -0.50391,0.64453 1.3e-4,6.3e-4 -1.2e-4,10e-4 0,0.002 0.0971,0.49467 0.1468,0.99793 0.18555,1.5 0.002,0.0123 0.002,0.0248 0.004,0.0371 0.11193,0.12939 0.21242,0.28823 0.30664,0.47071 0.28624,0.63931 0.394,1.26593 0.3164,1.96679 -0.071,0.36875 -0.17142,0.67266 -0.30859,0.94532 0.007,0.2569 0.0109,0.51454 0.0137,0.77148 -0.01,0.37144 -0.13007,0.71601 -0.27343,1.05273 0.22676,-0.2026 0.45774,-0.29303 0.6582,-0.29882 0.2735,-0.008 0.49057,0.14361 0.57031,0.38671 0.50564,0.0145 0.80895,0.65595 0.26758,1.41602 -0.32154,0.45144 -0.64892,0.89593 -0.99609,1.32813 -0.30277,0.3394 -0.64091,0.6451 -0.97461,0.95312 -0.26469,0.24431 -0.52493,0.35587 -0.74805,0.37305 v 0.59765 h 12.22851 v -12.14648 z" /></clipPath><clipPath
       clipPathUnits="userSpaceOnUse"
       id="clipPath86080"><path
         id="path86082"
         style="fill:#ff0000;fill-opacity:1;fill-rule:nonzero;stroke:none"
         d="m 494.9043,787.08008 v 31.23633 h 15.79492 c 0.16483,-0.19093 0.4667,-0.33008 0.90625,-0.33008 h 0.6875 c 0.11197,-0.058 0.24464,-0.0992 0.40625,-0.10742 0.19334,-0.01 0.41876,0.0211 0.66797,0.10742 h 1.43359 v -30.69141 c -0.49343,0.0609 -0.98948,0.11999 -1.48633,0.0645 -0.46618,-0.0438 -0.93597,-0.0923 -1.38867,-0.2168 -0.0672,-0.0185 -0.12897,-0.0398 -0.1875,-0.0625 z m 6.36523,8.05664 c 0.35352,10e-6 0.7094,0.35146 0.71875,1.05469 0.003,0.20046 0.001,0.39971 -0.002,0.59961 0.15758,0.1232 0.3062,0.3142 0.41992,0.58398 0.23416,0.5555 0.4475,1.11921 0.625,1.69531 0.0671,0.26567 0.19012,0.51083 0.29687,0.76172 0.55078,1.29425 -0.75781,1.8509 -1.30859,0.55664 -0.11402,-0.26793 -0.23869,-0.53296 -0.32226,-0.8125 -0.007,0.0743 -0.0169,0.14826 -0.0234,0.22266 -0.0412,0.56482 -0.091,1.13248 -0.0781,1.69922 0.0411,0.23426 0.0188,0.11098 0.0723,0.36523 0.28955,1.37645 -1.11749,1.66457 -1.39258,0.28516 -0.0787,-0.39454 -0.0441,-0.1878 -0.0996,-0.625 -0.009,-0.6174 0.0346,-1.23441 0.084,-1.84961 0.0634,-0.71642 0.14093,-1.43057 0.26953,-2.13867 0.0495,-0.44678 0.0391,-0.89479 0.0371,-1.34375 -0.003,-0.70329 0.34961,-1.05471 0.70312,-1.05469 z" /></clipPath><clipPath
       clipPathUnits="userSpaceOnUse"
       id="clipPath86192"><path
         id="path86194"
         style="fill:#ff0000;fill-opacity:1;fill-rule:nonzero;stroke:none"
         d="M 256.79297,697.62891 V 906.92773 H 526.08008 V 697.62891 Z m 257.10937,51.36523 c 0.26138,10e-6 0.52346,0.0911 0.83008,0.27148 0.73791,0.66033 0.43145,1.3829 0.0918,2.15235 -0.0978,0.19676 -0.14383,0.41183 -0.22852,0.61328 0.1704,0.22227 0.31646,0.46302 0.44336,0.7168 0.20696,0.43304 0.30599,0.90052 0.36719,1.37304 0.0497,0.50381 0.0584,1.00981 0.0684,1.51563 0.01,0.49209 -0.10362,0.96432 -0.24219,1.43164 0.0354,0.11663 0.0675,0.23538 0.0937,0.35742 0.0813,0.4485 0.1467,0.91103 -0.0566,1.31641 0.003,0.0222 0.009,0.0441 0.0117,0.0664 0.0359,0.26215 0.0624,0.52559 0.0859,0.78907 0.56033,0.34966 1.13581,0.69417 1.81445,0.69336 0.0797,-0.006 0.16028,-0.002 0.23828,-0.0195 0.35409,-0.0788 0.65152,-0.31707 0.91211,-0.55468 1.0394,-0.94769 2.03585,0.046 1.00586,1.0039 -0.40174,0.37363 -0.86371,0.72795 -1.40234,0.87696 -0.17777,0.0492 -0.36345,0.0648 -0.54493,0.0976 -0.47085,0.0306 -0.87546,-0.0477 -1.26171,-0.16992 0.0316,0.1053 0.0621,0.21183 0.0859,0.32031 0.073,0.53691 0.0177,1.07973 -0.0547,1.61328 -0.067,0.4453 -0.20994,0.75782 -0.44141,1.01368 0.2186,0.63188 0.45933,1.25624 0.6543,1.89648 0.0524,0.17882 0.10385,0.35634 0.15625,0.53516 0.24122,0.82301 -0.1745,1.22654 -0.62305,1.16211 0.05,0.85998 0.0779,1.7208 0.0996,2.58203 0.0228,0.98636 0.033,1.97241 0.041,2.95898 0.0148,0.68642 -0.0358,1.4599 -1.01563,1.45899 -0.0564,-6e-5 -0.1099,-0.0109 -0.16016,-0.0274 -0.0351,0.23855 -0.0661,0.47768 -0.0976,0.7168 0.0209,0.21257 0.0352,0.42642 0.0762,0.63476 0.0823,0.37321 0.12515,0.75244 0.15625,1.13282 0.0283,0.4025 0.0379,0.80565 0.0449,1.20898 0.0126,0.44294 0.009,0.88428 -0.0234,1.32617 -0.0125,0.18741 -0.0836,0.36239 -0.11914,0.54493 7.3e-4,0.002 2.8e-4,0.004 0.002,0.006 0.18812,0.50698 0.41461,0.99837 0.62109,1.49804 0.14062,0.32756 0.0712,0.16404 0.20703,0.49024 0.22648,0.5441 0.12721,0.95496 -0.10351,1.15429 0.23968,0.11475 0.46871,0.25187 0.63085,0.46485 0.0642,0.0842 0.10947,0.18273 0.16407,0.27343 0.0246,0.13602 0.0792,0.27008 0.0742,0.40821 -0.0116,0.31487 -0.17183,0.53164 -0.38477,0.70312 0.61935,0.25198 0.64546,0.90079 0.10742,1.1836 -0.14349,0.1801 -0.39462,0.33335 -0.76562,0.40429 -0.29533,0.0565 -0.14042,0.0278 -0.46094,0.082 -0.55887,0.0676 -1.12187,0.15102 -1.68555,0.0879 -0.46618,-0.0438 -0.93597,-0.0923 -1.38867,-0.2168 -0.76091,-0.20932 -0.95937,-0.70584 -0.74414,-1.04688 -1.34574,-0.33333 -1.01479,-1.70357 0.3457,-1.375 0.26248,0.0634 0.52522,0.12815 0.78125,0.21485 0.24235,0.0776 0.49373,0.13748 0.74805,0.16015 -0.0106,-0.0344 -0.0208,-0.069 -0.0312,-0.10351 -0.0819,-0.38325 -0.11179,-0.76667 -0.082,-1.15821 0.006,-0.18199 0.0244,-0.3632 0.0352,-0.54492 -0.0491,-0.10372 -0.0929,-0.21041 -0.13086,-0.32226 -0.14883,-0.47892 -0.20636,-0.96339 -0.13086,-1.46289 0.0513,-0.49138 0.12094,-0.98111 0.23242,-1.46289 0.10225,-0.45522 0.16924,-0.90772 0.14844,-1.37696 0.0208,-0.65274 0.0535,-1.30581 0.12695,-1.95508 0.0359,-0.31693 0.079,-0.63266 0.11914,-0.94921 -0.009,-0.0915 -0.0256,-0.18205 -0.0332,-0.27344 -0.0307,-0.38719 -0.0771,-0.77185 -0.13282,-1.15625 -0.0552,-0.44153 -0.0879,-0.88658 -0.18359,-1.32227 -0.10475,-0.52954 -0.21214,-1.05954 -0.27734,-1.5957 -0.0547,-0.52825 -0.0684,-1.05768 -0.0293,-1.58789 0.006,-0.0967 0.0228,-0.19238 0.0293,-0.28906 -0.16054,-0.81304 -0.25731,-1.63885 -0.28321,-2.46875 0.0247,-0.30594 0.033,-0.53146 0.0527,-0.74024 -0.087,-0.67743 -0.16549,-1.35627 -0.22656,-2.03711 -0.007,-0.11521 -0.0412,-0.48357 -0.0293,-0.85742 -0.15158,-0.389 -0.1155,-0.88657 -0.11524,-1.27344 0.0318,-0.64072 0.0757,-1.28207 0.19141,-1.91406 0.004,-0.0177 0.008,-0.0351 0.0117,-0.0527 -0.006,-0.007 -0.008,-0.0165 -0.0137,-0.0234 -0.35869,-0.38424 -0.56803,-0.56913 -1.11133,-0.57813 -1.4064,-0.0222 -1.40649,-1.43687 0,-1.42187 0.11318,10e-4 0.21436,0.0414 0.32422,0.0547 -0.49111,-0.88569 -0.72226,-1.88887 -0.89258,-2.88282 -0.0696,-0.92302 0.2552,-1.78177 1.42383,-1.33007 0.0809,0.0312 0.16437,0.0842 0.24805,0.15039 -0.0357,-0.16276 -0.0699,-0.32636 -0.0996,-0.49024 -0.0787,-0.55302 -0.14856,-1.10725 -0.19336,-1.66406 -0.0405,-0.4788 -0.0702,-0.95125 0.0117,-1.42578 0.15339,-0.58053 0.57287,-0.98754 1.05469,-1.3125 0.30866,-0.1824 0.57065,-0.27345 0.83203,-0.27344 z m 0.13672,1.375 c -0.0134,-8.2e-4 -0.0844,0.036 -0.14648,0.0664 0.018,0.0142 0.0373,0.0211 0.0566,0.0137 0.079,-0.0598 0.0999,-0.0795 0.0898,-0.0801 z m -0.4082,0.24024 c -0.0905,0.074 -0.17119,0.15766 -0.22266,0.25585 -0.0322,0.0934 -0.0427,0.19699 -0.041,0.30274 0.0507,-0.10936 0.10232,-0.21862 0.1582,-0.32617 0.007,-0.0165 0.0557,-0.12161 0.10547,-0.23242 z m -1.55859,4.17773 c -0.005,0.004 -0.0137,0.0392 -0.0234,0.0957 0.0252,-0.0628 0.0297,-0.10098 0.0234,-0.0957 z m 2.80664,6.53711 c -0.0149,0.028 -0.0264,0.0571 -0.0391,0.0859 0.0594,-0.0425 0.0995,-0.0783 0.0391,-0.0859 z m -20.52344,20.95898 c 0.2061,-0.003 0.4507,0.0579 0.71875,0.20899 0.0619,0.0349 0.13179,0.0493 0.19531,0.0801 0.15021,-0.13552 0.38143,-0.22949 0.68945,-0.24024 0.0778,-0.003 0.16057,-8.3e-4 0.24805,0.008 0.42742,0.0422 0.85616,0.0613 1.28516,0.0781 0.86468,0.0338 1.17614,0.58442 0.96093,0.99023 0.98562,0.35981 0.77659,1.45292 -0.48242,1.28125 -0.44819,-0.0611 -0.89675,-0.12429 -1.33984,-0.21679 -0.79652,-0.17025 -1.60021,-0.35571 -2.30859,-0.77539 -0.94543,-0.56011 -0.70288,-1.40187 0.0332,-1.41407 z m 20.08594,2.48242 c 0.0116,0.0309 -0.004,0.0463 0.006,0.0762 0.0305,-0.009 0.0615,-0.016 0.0918,-0.0254 -0.0333,-0.0155 -0.0648,-0.0344 -0.0976,-0.0508 z m 0.70507,0.32813 c 0.004,0.0107 0.004,0.0114 0.008,0.0234 0.0183,0.0169 0.0344,0.0394 0.0566,0.0508 0.009,0.004 -0.004,-0.0204 -0.01,-0.0273 -0.0159,-0.0184 -0.0362,-0.032 -0.0547,-0.0469 z m -13.87695,10.04297 c 0.35352,10e-6 0.7094,0.35146 0.71875,1.05469 0.003,0.19588 -0.0148,0.3906 -0.0176,0.58593 0.16388,0.12254 0.31779,0.31829 0.43555,0.59766 0.23416,0.5555 0.4475,1.11921 0.625,1.69531 0.0671,0.26567 0.19014,0.51083 0.29687,0.76172 0.55078,1.29425 -0.75781,1.8509 -1.30859,0.55664 -0.11242,-0.26417 -0.23482,-0.52554 -0.31836,-0.80078 -0.007,0.0706 -0.0211,0.14024 -0.0273,0.21094 -0.0412,0.56482 -0.091,1.13248 -0.0781,1.69922 0.0411,0.23426 0.0188,0.11098 0.0723,0.36523 0.28955,1.37645 -1.11749,1.66457 -1.39258,0.28516 -0.0787,-0.39454 -0.0441,-0.1878 -0.0996,-0.625 -0.009,-0.6174 0.0346,-1.23441 0.084,-1.84961 0.0634,-0.71642 0.14093,-1.43057 0.26953,-2.13867 0.0495,-0.44678 0.0391,-0.89479 0.0371,-1.34375 -0.003,-0.70329 0.34961,-1.05471 0.70312,-1.05469 z m 15.13477,6.67773 c 0.29504,0.0109 0.61483,0.26424 0.77539,0.81836 0.13547,0.46758 0.25791,0.9367 0.35351,1.41407 0.10072,0.58748 0.19756,1.17595 0.28516,1.76562 0.0401,0.49013 0.15176,0.96399 0.26953,1.43945 0.0707,0.27067 0.11494,0.5474 0.15234,0.82422 0.18861,1.39387 -1.22458,1.58204 -1.4082,0.1875 -0.0297,-0.22538 -0.065,-0.44974 -0.12305,-0.66992 -0.12856,-0.5191 -0.24752,-1.03799 -0.29492,-1.57227 -0.0841,-0.56656 -0.17939,-1.13265 -0.27539,-1.69726 -0.0832,-0.41962 -0.19072,-0.83052 -0.30664,-1.24219 -0.21445,-0.76158 0.11469,-1.23672 0.51367,-1.26562 0.0194,-10e-4 0.0389,-0.003 0.0586,-0.002 z m -3.63086,16.0625 c 0.17607,5e-4 0.37569,0.0339 0.59375,0.10938 h 1.45703 1.48047 0.21484 c 1.40658,0 1.40658,1.42187 0,1.42187 h -0.21484 -0.22071 c -0.14287,0.27323 -0.47545,0.48451 -1.0625,0.375 -0.1287,-0.024 -0.25791,-0.043 -0.38671,-0.0644 v 0.69141 c -0.0156,0.58527 -0.003,1.16472 0.082,1.74414 0.0999,0.73048 0.215,1.45891 0.33984,2.18554 0.12829,0.73135 0.18716,1.47038 0.22656,2.21094 0.0521,0.80977 0.12436,1.61703 0.18946,2.42578 0.0752,0.91088 0.10324,1.82484 0.12304,2.73828 0.0169,0.90327 0.0234,1.80754 0.0274,2.71094 0.0403,1.07304 -0.0721,2.14046 -0.18946,3.20508 -0.0292,0.28282 -0.0996,0.55894 -0.14062,0.83984 0.0118,0.44286 0.0207,0.88516 0.0273,1.32813 0.0134,1.07646 0.0165,2.15199 0.0195,3.22851 0.0225,0.82626 -0.002,1.64995 -0.0762,2.47266 -0.0443,0.35389 -0.14864,0.69251 -0.23828,1.03516 0.0953,0.0302 0.18768,0.0666 0.26758,0.12695 0.21229,0.16048 0.28255,0.45432 0.37695,0.70312 0.0895,0.23588 0.12932,0.48928 0.16992,0.73829 0.1323,0.8122 0.1058,1.63838 0.0899,2.45703 -0.0619,1.64215 -0.37653,3.25331 -0.74414,4.84961 -0.0536,0.22853 -0.11549,0.45499 -0.17578,0.68164 0.0328,0.40348 0.0591,0.80695 0.084,1.21093 0.0488,0.37218 0.0946,0.74546 0.13086,1.11915 0.0568,0.6158 0.0248,0.73008 -0.60938,0.67187 -7.4e-4,0.21616 0.007,0.43238 0.002,0.64844 -0.0233,0.6048 -0.0445,1.20959 -0.0645,1.81445 0.15661,0.263 0.22375,0.59584 0.28711,0.875 0.13296,0.72166 0.1591,1.45588 0.1836,2.1875 0.0125,0.70112 0.076,1.39948 0.11133,2.09961 0.0334,0.77053 0.0437,1.54136 0.0527,2.3125 0.007,0.73334 0.01,1.4678 0.0117,2.20117 0.005,0.79409 -0.11394,1.57757 -0.21094,2.36328 -0.049,0.45289 -0.18073,0.88869 -0.27734,1.33203 0.22736,-0.31261 0.45283,-0.6271 0.67773,-0.9414 0.28136,-0.39322 0.60981,-0.57074 0.88672,-0.58594 0.52864,-0.029 0.87136,0.5309 0.34766,1.29102 -0.41619,0.60405 -0.85023,1.19739 -1.28907,1.78515 -0.22539,0.27237 -0.44523,0.54816 -0.65625,0.83008 v 0.002 c 0.0971,0.49466 0.1468,0.99794 0.18555,1.5 0.002,0.0123 0.002,0.0248 0.004,0.0371 0.11193,0.12939 0.21242,0.28823 0.30664,0.47071 0.28624,0.63931 0.394,1.26593 0.3164,1.96679 -0.0722,0.37533 -0.17323,0.68479 -0.31445,0.96094 0.006,0.25198 0.0168,0.50385 0.0195,0.75586 -0.01,0.37473 -0.13613,0.72101 -0.28125,1.06055 0.22944,-0.20783 0.46313,-0.30078 0.66602,-0.30664 0.27853,-0.008 0.49823,0.14937 0.57422,0.40039 0.49985,0.0223 0.80161,0.64708 0.26367,1.40234 -0.32154,0.45144 -0.649,0.89593 -0.99609,1.32813 -0.30277,0.3394 -0.64091,0.6451 -0.97461,0.95312 -0.65238,0.60214 -1.27682,0.408 -1.38868,-0.0566 -0.05,0.0246 -0.0962,0.0547 -0.14453,0.082 -1.2243,0.69249 0.17463,-2.48382 -0.58008,-1.29687 -0.0134,0.021 -0.0202,0.046 -0.0332,0.0684 -0.004,0.01 -0.004,0.0214 -0.008,0.0312 -0.0101,0.0237 -0.04,0.092 -0.0371,0.0664 0.004,-0.0366 0.0266,-0.066 0.0449,-0.0977 0.0565,-0.14613 0.0806,-0.30393 0.12695,-0.45313 0.12167,-0.38456 0.28518,-0.7471 0.51563,-1.08008 0.1888,-0.3527 0.25224,-0.76642 0.45508,-1.11523 0.0641,-0.14215 0.10591,-0.29453 0.16992,-0.43945 -0.52307,0.18498 -1.00182,0.18462 -1.57031,-0.22071 -0.0896,-0.0995 -0.20093,-0.18385 -0.26953,-0.29883 -0.25017,-0.41956 -0.16499,-0.87238 -0.11329,-1.32617 0.0703,-0.55775 0.17136,-1.11174 0.25196,-1.66797 0.13111,-0.72585 0.30163,-1.44383 0.49219,-2.15625 0.19074,-0.67518 0.43395,-1.33069 0.66406,-1.99218 -0.0397,-0.32607 -0.0819,-0.65234 -0.0937,-0.98047 0,-0.49414 3e-4,-0.98843 0.002,-1.48242 0.002,-0.60138 0.003,-1.20139 0.01,-1.80274 2.1e-4,-0.0169 0.002,-0.0339 0.002,-0.0508 -0.43738,-0.18117 -0.54281,-0.80736 -0.65039,-1.20313 -0.18974,-0.82897 -0.34517,-1.65988 -0.32227,-2.51562 -0.0304,-0.99127 -0.0243,-1.98133 0.008,-2.97266 0.032,-0.95055 0.0752,-1.90306 0.1914,-2.84765 0.15132,-1.10631 0.35183,-2.20651 0.61914,-3.29102 v -0.002 c -0.14573,-0.2354 -0.30322,-0.46403 -0.42187,-0.71485 -0.19815,-0.47967 -0.32546,-0.96909 -0.28516,-1.49414 0.005,-0.66362 0.0126,-1.32679 0.0293,-1.99023 0.0265,-0.94257 0.0657,-1.88562 0.16015,-2.82422 -0.0543,-0.21514 -0.11527,-0.42865 -0.16601,-0.64453 -0.18382,-0.8549 -0.34092,-1.71642 -0.26172,-2.5957 0.0359,-0.76512 0.0847,-1.53067 0.22461,-2.28516 0.15979,-0.83264 0.37886,-1.65109 0.62305,-2.46289 0.004,-0.0116 0.006,-0.0235 0.01,-0.0352 -0.0148,-0.3146 -0.0327,-0.62862 -0.0449,-0.94336 -0.0227,-1.37896 -0.008,-2.75943 -0.0117,-4.13867 v -4.26758 -2.87304 c 0,-0.37709 0.10429,-0.65082 0.25391,-0.82618 -0.0839,-0.43386 -0.18741,-0.86457 -0.24805,-1.30273 -0.117,-1.13875 -0.22763,-2.28255 -0.24023,-3.42773 -0.002,-0.73677 0.0109,-1.4733 0.084,-2.20704 0.0697,-0.69969 0.45601,-1.01183 0.80859,-0.97265 0.023,0.003 0.0458,0.0101 0.0684,0.0156 -0.0187,-0.12979 -0.0427,-0.25869 -0.0605,-0.38867 -0.0914,-0.64664 -0.11654,-1.29437 -0.0977,-1.94726 v -1.00196 h -0.19141 -1.41601 c -1.40657,0 -1.40657,-1.42187 0,-1.42187 h 0.75391 c 0.10342,-0.0456 0.19915,-0.10024 0.33984,-0.10742 0.0242,-10e-4 0.0491,-0.002 0.0742,-0.002 z m 1.07617,8.6211 c 0.0353,0.88985 0.11967,1.77837 0.21094,2.66406 -0.002,-0.0234 -0.002,-0.0469 -0.004,-0.0703 -0.066,-0.82163 -0.14086,-1.64216 -0.19336,-2.46485 -0.002,-0.0432 -0.0113,-0.0857 -0.0137,-0.1289 z m -6.83984,0.51562 c 0.40791,0.003 0.30867,0.66256 -0.0899,1.5918 -0.0325,0.0758 -0.0805,0.096 -0.13476,0.13672 0.0726,0.14799 0.14262,0.29695 0.21289,0.44531 0.5734,1.2106 -0.56687,1.81875 -1.19532,0.77539 -0.0303,0.0456 -0.0715,0.0806 -0.10156,0.12695 -0.24319,0.39838 -0.44596,0.81813 -0.58984,1.26172 -0.43399,1.33795 -1.80299,0.87772 -1.34766,-0.45312 0.19007,-0.55553 0.43233,-1.08576 0.7461,-1.58399 0.16563,-0.25228 0.3533,-0.4898 0.53711,-0.73047 -0.53844,-0.75871 -0.23052,-1.40127 0.29687,-1.38476 0.20884,0.007 0.45278,0.11828 0.69141,0.36523 0.0885,-0.0714 0.15524,-0.16578 0.25,-0.23047 0.32672,-0.22305 0.56499,-0.32152 0.72461,-0.32031 z m 12.17382,31.78906 c 0.33176,-10e-6 0.66684,0.30922 0.71485,0.9668 0.0447,0.61261 0.11582,1.22144 0.19922,1.83008 0.10111,0.65312 0.18071,1.30967 0.29296,1.96094 0.2391,1.3861 -1.16407,1.62682 -1.40039,0.24023 -0.11373,-0.6673 -0.19877,-1.33859 -0.30078,-2.00781 -0.0838,-0.61392 -0.15737,-1.2296 -0.20117,-1.84766 -0.0528,-0.74537 0.31932,-1.14256 0.69531,-1.14258 z m -6.00586,22.05469 c -0.0543,0.33948 -0.11158,0.67817 -0.15429,1.01953 -0.008,0.13168 -0.0224,0.26436 -0.0352,0.39649 0.0899,4.8e-4 0.18073,-0.0351 0.26953,-0.0859 -0.0259,-0.0997 -0.076,-0.2059 -0.0195,-0.27148 -0.0329,-0.35214 -0.0562,-0.70487 -0.0606,-1.0586 z m -0.19726,1.50586 c -10e-4,0.0254 -0.008,0.0507 -0.008,0.0762 0,0.0175 0.0108,0.0684 0.0117,0.0508 0.003,-0.0618 0.002,-0.0956 -0.004,-0.12695 z" /></clipPath><clipPath
       clipPathUnits="userSpaceOnUse"
       id="clipPath86208"><path
         id="path86210"
         style="fill:#ff0000;fill-opacity:1;fill-rule:nonzero;stroke:none"
         d="m 256.79297,697.62891 v 209.29882 h 257.7793 v -19.20507 c -0.0418,0.0385 -0.0833,0.0767 -0.125,0.11523 -0.65238,0.60214 -1.27682,0.40808 -1.38868,-0.0566 -0.05,0.0246 -0.0962,0.0547 -0.14453,0.082 -1.2243,0.69249 0.17463,-2.48382 -0.58008,-1.29687 -0.0134,0.021 -0.0202,0.046 -0.0332,0.0684 -0.004,0.01 -0.004,0.0214 -0.008,0.0312 -0.0101,0.0237 -0.04,0.092 -0.0371,0.0664 0.004,-0.0366 0.0266,-0.066 0.0449,-0.0977 0.0565,-0.14613 0.0806,-0.30393 0.12695,-0.45313 0.12167,-0.38456 0.28518,-0.7471 0.51563,-1.08008 0.1888,-0.3527 0.25224,-0.76642 0.45508,-1.11523 0.0641,-0.14215 0.10591,-0.29451 0.16992,-0.43945 -0.52307,0.185 -1.00182,0.18462 -1.57031,-0.22071 -0.0896,-0.0995 -0.20093,-0.18385 -0.26953,-0.29883 -0.25017,-0.41956 -0.16499,-0.87238 -0.11329,-1.32617 0.0703,-0.55775 0.17136,-1.11174 0.25196,-1.66797 0.13111,-0.72585 0.30163,-1.44383 0.49219,-2.15625 0.19076,-0.67518 0.43395,-1.33067 0.66406,-1.99218 -0.0397,-0.32607 -0.0817,-0.65234 -0.0937,-0.98047 0,-0.49414 4e-4,-0.98841 0.002,-1.48242 0.002,-0.60138 0.003,-1.20139 0.01,-1.80274 2.1e-4,-0.0169 0.002,-0.0339 0.002,-0.0508 -0.43738,-0.18117 -0.54281,-0.80736 -0.65039,-1.20313 -0.18974,-0.82899 -0.34517,-1.65988 -0.32227,-2.51562 -0.0304,-0.99127 -0.0239,-1.98133 0.008,-2.97266 0.032,-0.95055 0.0752,-1.90306 0.1914,-2.84765 0.15132,-1.10631 0.35183,-2.20651 0.61914,-3.29102 v -0.002 c -0.14573,-0.2354 -0.30322,-0.46403 -0.42187,-0.71485 -0.19815,-0.47967 -0.32546,-0.96909 -0.28516,-1.49414 0.005,-0.66362 0.0126,-1.32679 0.0293,-1.99023 0.0265,-0.94257 0.0657,-1.88562 0.16015,-2.82422 -0.0543,-0.21514 -0.11527,-0.42865 -0.16601,-0.64453 -0.18382,-0.8549 -0.34092,-1.71642 -0.26172,-2.5957 0.0359,-0.76512 0.0847,-1.53067 0.22461,-2.28516 0.15979,-0.83264 0.37886,-1.65109 0.62305,-2.46289 0.004,-0.0116 0.006,-0.0235 0.01,-0.0352 -0.0148,-0.3146 -0.0327,-0.62862 -0.0449,-0.94336 -0.0227,-1.37898 -0.008,-2.75943 -0.0117,-4.13867 v -4.26758 -2.87304 c 0,-0.37709 0.10429,-0.65082 0.25391,-0.82618 -0.0839,-0.43388 -0.18741,-0.86457 -0.24805,-1.30273 -0.117,-1.13875 -0.22763,-2.28255 -0.24023,-3.42773 -0.002,-0.73677 0.0109,-1.4733 0.084,-2.20704 0.0697,-0.69971 0.45601,-1.01183 0.80859,-0.97265 0.023,0.003 0.0458,0.0101 0.0684,0.0156 -0.0187,-0.12979 -0.0427,-0.25869 -0.0605,-0.38867 -0.0914,-0.64664 -0.11662,-1.29437 -0.0977,-1.94726 v -1.00196 h -0.19141 -1.41601 c -1.40657,0 -1.40657,-1.42187 0,-1.42187 h 0.75391 c 0.10344,-0.0456 0.19915,-0.10024 0.33984,-0.10742 0.19334,-0.01 0.41876,0.0211 0.66797,0.10742 h 1.20508 v -30.66406 c -0.418,0.0486 -0.83764,0.0843 -1.25782,0.0371 -0.46618,-0.0438 -0.93597,-0.0923 -1.38867,-0.2168 -0.76091,-0.20932 -0.95937,-0.70584 -0.74414,-1.04688 -1.34577,-0.33332 -1.01482,-1.70357 0.3457,-1.375 0.26248,0.0634 0.52522,0.12815 0.78125,0.21485 0.24235,0.0776 0.49373,0.13748 0.74805,0.16015 -0.0106,-0.0344 -0.0208,-0.069 -0.0312,-0.10351 -0.0819,-0.38325 -0.11173,-0.76667 -0.082,-1.15821 0.006,-0.18199 0.0244,-0.3632 0.0352,-0.54492 -0.0491,-0.10372 -0.0929,-0.21041 -0.13086,-0.32226 -0.14883,-0.47892 -0.20636,-0.96339 -0.13086,-1.46289 0.0513,-0.49138 0.12094,-0.98111 0.23242,-1.46289 0.10225,-0.45522 0.16924,-0.90772 0.14844,-1.37696 0.0208,-0.65274 0.0535,-1.30581 0.12695,-1.95508 0.0359,-0.31693 0.079,-0.63266 0.11914,-0.94921 -0.009,-0.0915 -0.0256,-0.18205 -0.0332,-0.27344 -0.0307,-0.38719 -0.0771,-0.77185 -0.13282,-1.15625 -0.0552,-0.44153 -0.0879,-0.88658 -0.18359,-1.32227 -0.10475,-0.52954 -0.21214,-1.05954 -0.27734,-1.5957 -0.0547,-0.52825 -0.0684,-1.05768 -0.0293,-1.58789 0.006,-0.0967 0.0228,-0.19238 0.0293,-0.28906 -0.16054,-0.81304 -0.25731,-1.63885 -0.28321,-2.46875 0.0247,-0.30594 0.033,-0.53146 0.0527,-0.74024 -0.087,-0.67743 -0.16549,-1.35627 -0.22656,-2.03711 -0.007,-0.11521 -0.0412,-0.48357 -0.0293,-0.85742 -0.15158,-0.389 -0.1155,-0.88657 -0.11524,-1.27344 0.0318,-0.64072 0.0757,-1.28207 0.19141,-1.91406 0.004,-0.0177 0.008,-0.0351 0.0117,-0.0527 -0.006,-0.007 -0.008,-0.0165 -0.0137,-0.0234 -0.35869,-0.38424 -0.56803,-0.56913 -1.11133,-0.57813 -1.4064,-0.0222 -1.40649,-1.43687 0,-1.42187 0.11318,10e-4 0.21436,0.0414 0.32422,0.0547 -0.49111,-0.88569 -0.72226,-1.88887 -0.89258,-2.88282 -0.0696,-0.92302 0.2552,-1.78177 1.42383,-1.33007 0.0809,0.0312 0.16437,0.0842 0.24805,0.15039 -0.0357,-0.16276 -0.0699,-0.32636 -0.0996,-0.49024 -0.0787,-0.55302 -0.14856,-1.10725 -0.19336,-1.66406 -0.0405,-0.4788 -0.0702,-0.95125 0.0117,-1.42578 0.15339,-0.58053 0.57287,-0.98754 1.05469,-1.3125 0.30866,-0.1824 0.57065,-0.27345 0.83203,-0.27344 0.21435,1e-5 0.43046,0.064 0.66993,0.18555 V 697.6288 Z m 257.24609,52.74023 c -0.0134,-8.2e-4 -0.0844,0.036 -0.14648,0.0664 0.018,0.0142 0.0373,0.0211 0.0566,0.0137 0.079,-0.0598 0.0999,-0.0795 0.0898,-0.0801 z m -0.4082,0.24024 c -0.0905,0.074 -0.17119,0.15766 -0.22266,0.25585 -0.0322,0.0934 -0.0427,0.19699 -0.041,0.30274 0.0507,-0.10936 0.10232,-0.21862 0.1582,-0.32617 0.007,-0.0165 0.0557,-0.12159 0.10547,-0.23242 z m 0.94141,1.3496 c -0.004,0.01 -0.005,0.0213 -0.01,0.0312 0.003,0.004 0.007,0.008 0.01,0.0117 z m -2.5,2.82813 c -0.005,0.004 -0.0137,0.0392 -0.0234,0.0957 0.0252,-0.0628 0.0297,-0.10098 0.0234,-0.0957 z m -17.7168,27.49609 c 0.2061,-0.003 0.4507,0.0579 0.71875,0.20899 0.0619,0.0349 0.13179,0.0493 0.19531,0.0801 0.15021,-0.13552 0.38143,-0.22949 0.68945,-0.24024 0.0778,-0.003 0.16057,-8.3e-4 0.24805,0.008 0.42742,0.0422 0.85616,0.0613 1.28516,0.0781 0.86468,0.0338 1.17614,0.58442 0.96093,0.99023 0.98562,0.35981 0.77659,1.45292 -0.48242,1.28125 -0.44819,-0.0611 -0.89675,-0.12429 -1.33984,-0.21679 -0.79652,-0.17025 -1.60021,-0.35571 -2.30859,-0.77539 -0.94543,-0.56011 -0.70288,-1.40187 0.0332,-1.41407 z m 20.08594,2.48242 c 0.0116,0.0309 -0.004,0.0463 0.006,0.0762 0.0305,-0.009 0.0615,-0.016 0.0918,-0.0254 -0.0333,-0.0155 -0.0648,-0.0344 -0.0976,-0.0508 z m -13.17188,10.3711 c 0.35352,10e-6 0.7094,0.35146 0.71875,1.05469 0.003,0.19588 -0.0148,0.3906 -0.0176,0.58593 0.16388,0.12254 0.31779,0.31829 0.43555,0.59766 0.23416,0.5555 0.4475,1.11921 0.625,1.69531 0.0671,0.26567 0.19014,0.51083 0.29687,0.76172 0.55078,1.29425 -0.75781,1.8509 -1.30859,0.55664 -0.11242,-0.26417 -0.23482,-0.52554 -0.31836,-0.80078 -0.007,0.0706 -0.0211,0.14024 -0.0273,0.21094 -0.0412,0.56482 -0.091,1.13248 -0.0781,1.69922 0.0411,0.23426 0.0188,0.11098 0.0723,0.36523 0.28955,1.37645 -1.11749,1.66457 -1.39258,0.28516 -0.0787,-0.39454 -0.0441,-0.1878 -0.0996,-0.625 -0.009,-0.6174 0.0346,-1.23441 0.084,-1.84961 0.0634,-0.71642 0.14093,-1.43057 0.26953,-2.13867 0.0495,-0.44678 0.0391,-0.89479 0.0371,-1.34375 -0.003,-0.70329 0.34961,-1.05471 0.70312,-1.05469 z m 12.58008,31.36133 c 0.0353,0.88985 0.11967,1.77837 0.21094,2.66406 -0.002,-0.0234 -0.002,-0.0469 -0.004,-0.0703 -0.066,-0.82163 -0.14086,-1.64216 -0.19336,-2.46485 -0.002,-0.0432 -0.0113,-0.0857 -0.0137,-0.1289 z m -6.83984,0.51562 c 0.40791,0.003 0.30862,0.66256 -0.0899,1.5918 -0.0325,0.0758 -0.0805,0.096 -0.13476,0.13672 0.0726,0.14799 0.14262,0.29695 0.21289,0.44531 0.5734,1.2106 -0.56687,1.81875 -1.19532,0.77539 -0.0303,0.0456 -0.0715,0.0806 -0.10156,0.12695 -0.24319,0.39838 -0.44596,0.81813 -0.58984,1.26172 -0.43399,1.33795 -1.80299,0.87772 -1.34766,-0.45312 0.19007,-0.55553 0.43233,-1.08576 0.7461,-1.58399 0.16563,-0.25228 0.3533,-0.4898 0.53711,-0.73047 -0.53844,-0.75872 -0.23052,-1.40127 0.29687,-1.38476 0.20884,0.007 0.45278,0.11828 0.69141,0.36523 0.0885,-0.0714 0.15524,-0.16578 0.25,-0.23047 0.32672,-0.22305 0.56499,-0.32152 0.72461,-0.32031 z m 7.5625,34.00977 c -0.006,0.17773 -0.0129,0.35547 -0.0195,0.5332 0.006,0.009 0.0142,0.0159 0.0195,0.0254 z m -1.39454,19.83398 c -0.0543,0.33948 -0.11158,0.67817 -0.15429,1.01953 -0.008,0.13168 -0.0224,0.26436 -0.0352,0.39649 0.0899,4.8e-4 0.18073,-0.0351 0.26953,-0.0859 -0.0259,-0.0997 -0.076,-0.2059 -0.0195,-0.27148 -0.0329,-0.35214 -0.0562,-0.70487 -0.0606,-1.0586 z m -0.19726,1.50586 c -10e-4,0.0254 -0.008,0.0507 -0.008,0.0762 0,0.0175 0.0108,0.0684 0.0117,0.0508 0.003,-0.0618 0.002,-0.0956 -0.004,-0.12695 z" /></clipPath><clipPath
       clipPathUnits="userSpaceOnUse"
       id="clipPath86224"><path
         id="path86226"
         style="fill:#ff0000;fill-opacity:1;fill-rule:nonzero;stroke:none"
         d="m 238.50586,698.98828 v 204.73633 h 280.96875 v -39.08203 c -0.21862,-0.12865 -0.40982,-0.40435 -0.48438,-0.8418 -0.11373,-0.6673 -0.19877,-1.33859 -0.30078,-2.00781 -0.0838,-0.61392 -0.15737,-1.2296 -0.20117,-1.84766 -0.0528,-0.74537 0.31932,-1.14256 0.69531,-1.14258 0.0996,0 0.19864,0.0291 0.29102,0.0859 v -98.31055 c -0.0413,0.0474 -0.0857,0.0951 -0.13672,0.14258 -0.40174,0.37363 -0.86371,0.72795 -1.40234,0.87696 -0.17777,0.0492 -0.36345,0.0648 -0.54493,0.0976 -0.47086,0.0306 -0.87545,-0.0497 -1.26171,-0.17187 0.0318,0.10587 0.062,0.21317 0.0859,0.32226 0.073,0.53691 0.0177,1.07973 -0.0547,1.61328 -0.067,0.4453 -0.20994,0.75782 -0.44141,1.01368 0.2186,0.63188 0.45933,1.25624 0.6543,1.89648 0.0524,0.17882 0.10385,0.35634 0.15625,0.53516 0.24122,0.82301 -0.1745,1.22654 -0.62305,1.16211 0.05,0.85998 0.0779,1.7208 0.0996,2.58203 0.0228,0.98636 0.033,1.97241 0.041,2.95898 0.0148,0.68642 -0.0358,1.4599 -1.01563,1.45899 -0.0564,-6e-5 -0.1099,-0.0109 -0.16016,-0.0274 -0.0351,0.23855 -0.0661,0.47768 -0.0976,0.7168 0.0209,0.21257 0.0352,0.42642 0.0762,0.63476 0.0823,0.37321 0.12515,0.75244 0.15625,1.13282 0.0283,0.4025 0.0379,0.80565 0.0449,1.20898 0.0126,0.44294 0.009,0.88428 -0.0234,1.32617 -0.0125,0.18741 -0.0836,0.36239 -0.11914,0.54493 7.3e-4,0.002 2.8e-4,0.004 0.002,0.006 0.18812,0.50698 0.41461,0.99837 0.62109,1.49804 0.14062,0.32756 0.0712,0.16404 0.20703,0.49024 0.22648,0.5441 0.12721,0.95496 -0.10351,1.15429 0.23968,0.11475 0.46871,0.25187 0.63085,0.46485 0.0642,0.0842 0.10947,0.18273 0.16407,0.27343 0.0246,0.13602 0.0792,0.27008 0.0742,0.40821 -0.0116,0.31487 -0.17183,0.53164 -0.38477,0.70312 0.61935,0.25198 0.64546,0.90079 0.10742,1.1836 -0.14349,0.1801 -0.39462,0.33335 -0.76562,0.40429 -0.29533,0.0565 -0.14042,0.0278 -0.46094,0.082 -0.55887,0.0676 -1.12187,0.15102 -1.68555,0.0879 -0.46618,-0.0438 -0.93597,-0.0923 -1.38867,-0.2168 -0.76091,-0.20932 -0.95937,-0.70584 -0.74414,-1.04688 -1.34577,-0.33332 -1.0148,-1.70357 0.3457,-1.375 0.26248,0.0634 0.52522,0.12815 0.78125,0.21485 0.24235,0.0776 0.49373,0.13748 0.74805,0.16015 -0.0106,-0.0344 -0.0208,-0.069 -0.0312,-0.10351 -0.0819,-0.38325 -0.11179,-0.76667 -0.082,-1.15821 0.006,-0.18199 0.0244,-0.3632 0.0352,-0.54492 -0.0491,-0.10372 -0.0929,-0.21041 -0.13086,-0.32226 -0.14883,-0.47892 -0.20636,-0.96339 -0.13086,-1.46289 0.0513,-0.49138 0.12094,-0.98111 0.23242,-1.46289 0.10225,-0.45522 0.16924,-0.90772 0.14844,-1.37696 0.0208,-0.65274 0.0535,-1.30581 0.12695,-1.95508 0.0359,-0.31693 0.079,-0.63266 0.11914,-0.94921 -0.009,-0.0915 -0.0256,-0.18205 -0.0332,-0.27344 -0.0307,-0.38719 -0.0771,-0.77185 -0.13282,-1.15625 -0.0552,-0.44153 -0.0879,-0.88658 -0.18359,-1.32227 -0.10475,-0.52954 -0.21214,-1.05954 -0.27734,-1.5957 -0.0547,-0.52825 -0.0684,-1.05768 -0.0293,-1.58789 0.006,-0.0967 0.0228,-0.19238 0.0293,-0.28906 -0.16054,-0.81304 -0.25731,-1.63885 -0.28321,-2.46875 0.0247,-0.30594 0.033,-0.53146 0.0527,-0.74024 -0.087,-0.67743 -0.16549,-1.35627 -0.22656,-2.03711 -0.007,-0.11521 -0.0412,-0.48357 -0.0293,-0.85742 -0.15158,-0.389 -0.1155,-0.88657 -0.11524,-1.27344 0.0318,-0.64072 0.0757,-1.28207 0.19141,-1.91406 0.004,-0.0177 0.008,-0.0351 0.0117,-0.0527 -0.006,-0.007 -0.008,-0.0165 -0.0137,-0.0234 -0.35869,-0.38424 -0.56803,-0.56913 -1.11133,-0.57813 -1.4064,-0.0222 -1.40649,-1.43687 0,-1.42187 0.11318,10e-4 0.21436,0.0414 0.32422,0.0547 -0.49111,-0.88569 -0.72226,-1.88887 -0.89258,-2.88282 -0.0696,-0.92302 0.2552,-1.78177 1.42383,-1.33007 0.0809,0.0312 0.16437,0.0842 0.24805,0.15039 -0.0357,-0.16276 -0.0699,-0.32636 -0.0996,-0.49024 -0.0787,-0.55302 -0.14856,-1.10725 -0.19336,-1.66406 -0.0405,-0.4788 -0.0702,-0.95125 0.0117,-1.42578 0.15339,-0.58053 0.57287,-0.98754 1.05469,-1.3125 0.30866,-0.1824 0.57065,-0.27345 0.83203,-0.27344 0.26138,10e-6 0.52346,0.0911 0.83008,0.27148 0.73791,0.66033 0.43145,1.3829 0.0918,2.15235 -0.0978,0.19676 -0.14383,0.41183 -0.22852,0.61328 0.1704,0.22227 0.31646,0.46302 0.44336,0.7168 0.20696,0.43304 0.30599,0.90052 0.36719,1.37304 0.0497,0.50381 0.0584,1.00981 0.0684,1.51563 0.01,0.49209 -0.10362,0.96432 -0.24219,1.43164 0.0354,0.11663 0.0675,0.23538 0.0937,0.35742 0.0813,0.4485 0.1467,0.91103 -0.0566,1.31641 0.003,0.0222 0.009,0.0441 0.0117,0.0664 0.0359,0.26215 0.0624,0.52559 0.0859,0.78907 0.56033,0.34966 1.13581,0.69417 1.81445,0.69336 0.0797,-0.006 0.16028,-0.002 0.23828,-0.0195 0.35409,-0.0788 0.65152,-0.31707 0.91211,-0.55468 0.43808,-0.39943 0.86826,-0.45283 1.14258,-0.31055 v -60.41797 z m 275.5332,51.38086 c -0.0134,-8.2e-4 -0.0844,0.036 -0.14648,0.0664 0.018,0.0142 0.0373,0.0211 0.0566,0.0137 0.079,-0.0598 0.0999,-0.0795 0.0898,-0.0801 z m -0.4082,0.24024 c -0.0905,0.074 -0.17119,0.15766 -0.22266,0.25585 -0.0322,0.0934 -0.0427,0.19699 -0.041,0.30274 0.0507,-0.10936 0.10232,-0.21862 0.1582,-0.32617 0.007,-0.0165 0.0557,-0.12161 0.10547,-0.23242 z m -1.55859,4.17773 c -0.005,0.004 -0.0137,0.0392 -0.0234,0.0957 0.0252,-0.0628 0.0297,-0.10098 0.0234,-0.0957 z m 2.80664,6.53711 c -0.0149,0.028 -0.0264,0.0571 -0.0391,0.0859 0.0594,-0.0425 0.0995,-0.0783 0.0391,-0.0859 z m -20.52344,20.95898 c 0.2061,-0.003 0.4507,0.0579 0.71875,0.20899 0.0619,0.0349 0.13179,0.0493 0.19531,0.0801 0.15021,-0.13552 0.38143,-0.22949 0.68945,-0.24024 0.0778,-0.003 0.16057,-8.3e-4 0.24805,0.008 0.42742,0.0422 0.85616,0.0613 1.28516,0.0781 0.86468,0.0338 1.17614,0.58442 0.96093,0.99023 0.98562,0.35981 0.77659,1.45292 -0.48242,1.28125 -0.44819,-0.0611 -0.89675,-0.12429 -1.33984,-0.21679 -0.79652,-0.17025 -1.60021,-0.35571 -2.30859,-0.77539 -0.94543,-0.56011 -0.70288,-1.40187 0.0332,-1.41407 z m 20.08594,2.48242 c 0.0116,0.0309 -0.004,0.0463 0.006,0.0762 0.0305,-0.009 0.0615,-0.016 0.0918,-0.0254 -0.0333,-0.0155 -0.0648,-0.0344 -0.0976,-0.0508 z m 0.70507,0.32813 c 0.004,0.0107 0.004,0.0114 0.008,0.0234 0.0183,0.0169 0.0344,0.0394 0.0566,0.0508 0.009,0.004 -0.004,-0.0204 -0.01,-0.0273 -0.0159,-0.0184 -0.0362,-0.032 -0.0547,-0.0469 z m -13.87695,10.04297 c 0.35352,10e-6 0.7094,0.35146 0.71875,1.05469 0.003,0.19588 -0.0148,0.3906 -0.0176,0.58593 0.16388,0.12254 0.31779,0.31829 0.43555,0.59766 0.23416,0.5555 0.4475,1.11921 0.625,1.69531 0.0671,0.26567 0.19014,0.51083 0.29687,0.76172 0.55078,1.29425 -0.75781,1.8509 -1.30859,0.55664 -0.11242,-0.26417 -0.23482,-0.52554 -0.31836,-0.80078 -0.007,0.0706 -0.0211,0.14024 -0.0273,0.21094 -0.0412,0.56482 -0.091,1.13248 -0.0781,1.69922 0.0411,0.23426 0.0188,0.11098 0.0723,0.36523 0.28955,1.37645 -1.11749,1.66457 -1.39258,0.28516 -0.0787,-0.39454 -0.0441,-0.1878 -0.0996,-0.625 -0.009,-0.6174 0.0346,-1.23441 0.084,-1.84961 0.0634,-0.71642 0.14093,-1.43057 0.26953,-2.13867 0.0495,-0.44678 0.0391,-0.89479 0.0371,-1.34375 -0.003,-0.70329 0.34961,-1.05471 0.70312,-1.05469 z m 15.13477,6.67773 c 0.29504,0.0109 0.61483,0.26424 0.77539,0.81836 0.13547,0.46758 0.25791,0.9367 0.35351,1.41407 0.10072,0.58748 0.19756,1.17595 0.28516,1.76562 0.0401,0.49013 0.15176,0.96399 0.26953,1.43945 0.0707,0.27067 0.11494,0.5474 0.15234,0.82422 0.18861,1.39387 -1.22458,1.58204 -1.4082,0.1875 -0.0297,-0.22538 -0.065,-0.44974 -0.12305,-0.66992 -0.12856,-0.5191 -0.24752,-1.03799 -0.29492,-1.57227 -0.0841,-0.56656 -0.17939,-1.13265 -0.27539,-1.69726 -0.0832,-0.41962 -0.19072,-0.83052 -0.30664,-1.24219 -0.21445,-0.76158 0.11469,-1.23672 0.51367,-1.26562 0.0194,-10e-4 0.0389,-0.003 0.0586,-0.002 z m -3.63086,16.0625 c 0.17607,5e-4 0.37569,0.0339 0.59375,0.10938 h 1.45703 1.48047 0.21484 c 1.40658,0 1.40658,1.42187 0,1.42187 h -0.21484 -0.22071 c -0.14287,0.27323 -0.47545,0.48451 -1.0625,0.375 -0.1287,-0.024 -0.25791,-0.043 -0.38671,-0.0644 v 0.69141 c -0.0156,0.58527 -0.003,1.16472 0.082,1.74414 0.0999,0.73048 0.215,1.45891 0.33984,2.18554 0.12829,0.73135 0.18716,1.47038 0.22656,2.21094 0.0521,0.80977 0.12436,1.61703 0.18946,2.42578 0.0752,0.91088 0.10324,1.82484 0.12304,2.73828 0.0169,0.90327 0.0234,1.80754 0.0274,2.71094 0.0403,1.07304 -0.0721,2.14046 -0.18946,3.20508 -0.0292,0.28282 -0.0996,0.55894 -0.14062,0.83984 0.0118,0.44286 0.0207,0.88516 0.0273,1.32813 0.0134,1.07646 0.0165,2.15199 0.0195,3.22851 0.0225,0.82626 -0.002,1.64995 -0.0762,2.47266 -0.0443,0.35389 -0.14864,0.69251 -0.23828,1.03516 0.0953,0.0302 0.18768,0.0666 0.26758,0.12695 0.21229,0.16048 0.28255,0.45432 0.37695,0.70312 0.0895,0.23588 0.12932,0.48928 0.16992,0.73829 0.1323,0.8122 0.1058,1.63838 0.0899,2.45703 -0.0619,1.64215 -0.37653,3.25331 -0.74414,4.84961 -0.0536,0.22853 -0.11549,0.45499 -0.17578,0.68164 0.0328,0.40348 0.0591,0.80695 0.084,1.21093 0.0488,0.37218 0.0946,0.74546 0.13086,1.11915 0.0568,0.6158 0.0248,0.73008 -0.60938,0.67187 -7.4e-4,0.21616 0.007,0.43238 0.002,0.64844 -0.0233,0.6048 -0.0445,1.20959 -0.0645,1.81445 0.15661,0.263 0.22375,0.59584 0.28711,0.875 0.13296,0.72166 0.1591,1.45588 0.1836,2.1875 0.0125,0.70112 0.076,1.39948 0.11133,2.09961 0.0334,0.77053 0.0437,1.54136 0.0527,2.3125 0.007,0.73334 0.01,1.4678 0.0117,2.20117 0.005,0.79409 -0.11394,1.57757 -0.21094,2.36328 -0.049,0.45289 -0.18073,0.88869 -0.27734,1.33203 0.22736,-0.31261 0.45283,-0.6271 0.67773,-0.9414 0.28136,-0.39322 0.60981,-0.57074 0.88672,-0.58594 0.52864,-0.029 0.87136,0.5309 0.34766,1.29102 -0.41619,0.60405 -0.85023,1.19739 -1.28907,1.78515 -0.22539,0.27237 -0.44523,0.54816 -0.65625,0.83008 v 0.002 c 0.0971,0.49466 0.1468,0.99794 0.18555,1.5 0.002,0.0123 0.002,0.0248 0.004,0.0371 0.11193,0.12939 0.21242,0.28823 0.30664,0.47071 0.28624,0.63931 0.394,1.26593 0.3164,1.96679 -0.0722,0.37533 -0.17323,0.68479 -0.31445,0.96094 0.006,0.25198 0.0168,0.50385 0.0195,0.75586 -0.01,0.37473 -0.13613,0.72101 -0.28125,1.06055 0.22944,-0.20783 0.46313,-0.30078 0.66602,-0.30664 0.27853,-0.008 0.49823,0.14937 0.57422,0.40039 0.49985,0.0223 0.80161,0.64708 0.26367,1.40234 -0.32154,0.45144 -0.649,0.89593 -0.99609,1.32813 -0.30277,0.3394 -0.64091,0.6451 -0.97461,0.95312 -0.65238,0.60214 -1.27682,0.408 -1.38868,-0.0566 -0.05,0.0246 -0.0962,0.0547 -0.14453,0.082 -1.2243,0.69249 0.17463,-2.48382 -0.58008,-1.29687 -0.0134,0.021 -0.0202,0.046 -0.0332,0.0684 -0.004,0.01 -0.004,0.0214 -0.008,0.0312 -0.0101,0.0237 -0.04,0.092 -0.0371,0.0664 0.004,-0.0366 0.0266,-0.066 0.0449,-0.0977 0.0565,-0.14613 0.0806,-0.30393 0.12695,-0.45313 0.12167,-0.38456 0.28518,-0.7471 0.51563,-1.08008 0.1888,-0.3527 0.25224,-0.76642 0.45508,-1.11523 0.0641,-0.14215 0.10591,-0.29453 0.16992,-0.43945 -0.52307,0.18498 -1.00182,0.18462 -1.57031,-0.22071 -0.0896,-0.0995 -0.20093,-0.18385 -0.26953,-0.29883 -0.25017,-0.41956 -0.16499,-0.87238 -0.11329,-1.32617 0.0703,-0.55775 0.17136,-1.11174 0.25196,-1.66797 0.13111,-0.72585 0.30163,-1.44383 0.49219,-2.15625 0.19074,-0.67518 0.43395,-1.33069 0.66406,-1.99218 -0.0397,-0.32607 -0.0819,-0.65234 -0.0937,-0.98047 0,-0.49414 3e-4,-0.98843 0.002,-1.48242 0.002,-0.60138 0.003,-1.20139 0.01,-1.80274 2.1e-4,-0.0169 0.002,-0.0339 0.002,-0.0508 -0.43738,-0.18117 -0.54281,-0.80736 -0.65039,-1.20313 -0.18974,-0.82897 -0.34517,-1.65988 -0.32227,-2.51562 -0.0304,-0.99127 -0.0243,-1.98133 0.008,-2.97266 0.032,-0.95055 0.0752,-1.90306 0.1914,-2.84765 0.15132,-1.10631 0.35183,-2.20651 0.61914,-3.29102 v -0.002 c -0.14573,-0.2354 -0.30322,-0.46403 -0.42187,-0.71485 -0.19815,-0.47967 -0.32546,-0.96909 -0.28516,-1.49414 0.005,-0.66362 0.0126,-1.32679 0.0293,-1.99023 0.0265,-0.94257 0.0657,-1.88562 0.16015,-2.82422 -0.0543,-0.21514 -0.11527,-0.42865 -0.16601,-0.64453 -0.18382,-0.8549 -0.34092,-1.71642 -0.26172,-2.5957 0.0359,-0.76512 0.0847,-1.53067 0.22461,-2.28516 0.15979,-0.83264 0.37886,-1.65109 0.62305,-2.46289 0.004,-0.0116 0.006,-0.0235 0.01,-0.0352 -0.0148,-0.3146 -0.0327,-0.62862 -0.0449,-0.94336 -0.0227,-1.37896 -0.008,-2.75943 -0.0117,-4.13867 v -4.26758 -2.87304 c 0,-0.37709 0.10429,-0.65082 0.25391,-0.82618 -0.0839,-0.43386 -0.18741,-0.86457 -0.24805,-1.30273 -0.117,-1.13875 -0.22763,-2.28255 -0.24023,-3.42773 -0.002,-0.73677 0.0109,-1.4733 0.084,-2.20704 0.0697,-0.69969 0.45601,-1.01183 0.80859,-0.97265 0.023,0.003 0.0458,0.0101 0.0684,0.0156 -0.0187,-0.12979 -0.0427,-0.25869 -0.0605,-0.38867 -0.0914,-0.64664 -0.11654,-1.29437 -0.0977,-1.94726 v -1.00196 h -0.19141 -1.41601 c -1.40657,0 -1.40657,-1.42187 0,-1.42187 h 0.75391 c 0.10342,-0.0456 0.19915,-0.10024 0.33984,-0.10742 0.0242,-10e-4 0.0491,-0.002 0.0742,-0.002 z m 1.07617,8.6211 c 0.0353,0.88985 0.11967,1.77837 0.21094,2.66406 -0.002,-0.0234 -0.002,-0.0469 -0.004,-0.0703 -0.066,-0.82163 -0.14086,-1.64216 -0.19336,-2.46485 -0.002,-0.0432 -0.0113,-0.0857 -0.0137,-0.1289 z m -6.83984,0.51562 c 0.40791,0.003 0.30867,0.66256 -0.0899,1.5918 -0.0325,0.0758 -0.0805,0.096 -0.13476,0.13672 0.0726,0.14799 0.14262,0.29695 0.21289,0.44531 0.5734,1.2106 -0.56687,1.81875 -1.19532,0.77539 -0.0303,0.0456 -0.0715,0.0806 -0.10156,0.12695 -0.24319,0.39838 -0.44596,0.81813 -0.58984,1.26172 -0.43399,1.33795 -1.80299,0.87772 -1.34766,-0.45312 0.19007,-0.55553 0.43233,-1.08576 0.7461,-1.58399 0.16563,-0.25228 0.3533,-0.4898 0.53711,-0.73047 -0.53844,-0.75871 -0.23052,-1.40127 0.29687,-1.38476 0.20884,0.007 0.45278,0.11828 0.69141,0.36523 0.0885,-0.0714 0.15524,-0.16578 0.25,-0.23047 0.32672,-0.22305 0.56499,-0.32152 0.72461,-0.32031 z m 6.16796,53.84375 c -0.0543,0.33948 -0.11158,0.67817 -0.15429,1.01953 -0.008,0.13168 -0.0224,0.26436 -0.0352,0.39649 0.0899,4.8e-4 0.18073,-0.0351 0.26953,-0.0859 -0.0259,-0.0997 -0.076,-0.2059 -0.0195,-0.27148 -0.0329,-0.35214 -0.0562,-0.70487 -0.0606,-1.0586 z m -0.19726,1.50586 c -10e-4,0.0254 -0.008,0.0507 -0.008,0.0762 0,0.0175 0.0108,0.0684 0.0117,0.0508 0.003,-0.0618 0.002,-0.0956 -0.004,-0.12695 z" /></clipPath></defs><g
     inkscape:groupmode="layer"
     inkscape:label="0"
     id="g50"><path
       d="M 257.30529,906.41471 H 525.56764 V 698.14066 H 257.30529 Z"
       style="fill:none;stroke:#0000ff;stroke-width:1.02465;stroke-opacity:1"
       id="path18"
       clip-path="url(#clipPath86192)"
       transform="matrix(1.0294489,0,0,1.0125766,-7.5665247,-9.5301124)" /><path
       d="m 322.27904,716.51072 h 181.3859 v -12.06463 h -181.3859 z"
       style="fill:none;stroke:#ff0000;stroke-width:1.03143;stroke-opacity:1"
       id="path20" /><path
       d="M 322.30173,900.81874 H 503.64225 V 887.66563 H 322.30173 Z"
       style="fill:none;stroke:#ff0000;stroke-width:1.07681;stroke-opacity:1"
       id="path22" /><path
       d="M 265.07278,734.6666 H 295.309 v -30.23622 h -30.23622 z"
       style="fill:none;stroke:#ff0000;stroke-opacity:1"
       id="path38" /><path
       style="fill:#000000;stroke-width:0.148185"
       d="m 391.10097,836.38204 c -1.31255,-0.29566 -1.91456,-0.57995 -2.65983,-1.25609 -0.83595,-0.75841 -1.27094,-1.74345 -1.4512,-3.28631 -0.0774,-0.66296 -0.14134,-3.57047 -0.14196,-6.4611 l -0.001,-5.25568 h 1.64303 1.64305 l 0.007,5.84373 c 0.007,6.12836 0.0487,6.56942 0.68838,7.26515 0.52009,0.56563 1.12222,0.76907 2.29272,0.77461 1.43823,0.007 2.01758,-0.29357 2.53893,-1.3164 l 0.37342,-0.7326 0.0451,-5.91725 0.0451,-5.91724 h 1.56819 1.5682 l -0.045,6.06425 c -0.0435,5.85961 -0.0561,6.09095 -0.37396,6.85483 -0.69119,1.6611 -1.82634,2.69726 -3.4799,3.17649 -1.15017,0.33332 -3.16313,0.41063 -4.25982,0.16361 z m 44.1407,0.007 c -2.43678,-0.5169 -4.09457,-2.34432 -4.70681,-5.18844 -0.32582,-1.51358 -0.29136,-4.58991 0.0669,-5.96847 0.9306,-3.58124 3.10994,-5.32443 6.65662,-5.32443 3.70262,0 5.73909,1.83 6.4559,5.80137 0.27064,1.49948 0.18322,4.33222 -0.17388,5.63469 -0.54341,1.98197 -1.73765,3.6274 -3.2021,4.41189 -1.38971,0.74446 -3.397,0.99391 -5.09659,0.63339 z m 3.28999,-2.92508 c 1.49959,-0.74651 2.00662,-2.26284 1.90335,-5.69216 -0.0783,-2.59883 -0.34267,-3.56549 -1.19719,-4.37673 -0.62207,-0.59058 -1.12846,-0.77326 -2.14337,-0.77326 -1.06775,0 -1.67666,0.26553 -2.32902,1.01564 -0.82866,0.95285 -1.08375,2.02685 -1.08566,4.57082 -0.002,2.35006 0.22336,3.44163 0.91544,4.4388 0.77789,1.12081 2.57626,1.49402 3.93645,0.81689 z m -96.6444,2.73325 c 0,-0.0532 1.10906,-3.65816 2.46456,-8.01101 1.35551,-4.35284 2.46457,-7.94959 2.46457,-7.99276 0,-0.0432 1.02084,-0.0602 2.26853,-0.0379 l 2.26853,0.0406 2.36046,7.57114 c 1.29824,4.16412 2.42287,7.78614 2.49918,8.04893 l 0.13873,0.47778 h -1.75672 -1.75673 l -0.16169,-0.55129 c -0.0889,-0.30322 -0.30406,-1.03092 -0.47807,-1.61714 l -0.31638,-1.06584 h -2.95748 -2.95748 l -0.49519,1.61714 -0.49518,1.61713 h -1.54482 c -0.84965,0 -1.54482,-0.0435 -1.54482,-0.0967 z m 9.20397,-5.89401 c -0.0423,-0.1415 -0.52872,-1.79522 -1.0809,-3.67495 -0.55219,-1.87972 -1.03075,-3.3913 -1.06348,-3.35908 -0.0775,0.0763 -2.13046,6.96701 -2.13046,7.15093 0,0.0827 0.89352,0.14036 2.17589,0.14036 2.00201,0 2.16975,-0.0206 2.09895,-0.25726 z m 7.07708,-2.09493 v -8.08568 h 3.04889 c 4.22321,0 5.59948,0.27917 6.7851,1.37632 0.75793,0.70137 1.1074,1.49199 1.18653,2.68431 0.13888,2.09257 -0.82359,3.58452 -2.67284,4.14326 -0.74511,0.22513 -0.87422,0.30461 -0.62257,0.38321 0.64392,0.20117 1.39269,1.30334 2.93891,4.32605 0.87125,1.70324 1.58411,3.1351 1.58411,3.1819 0,0.0468 -0.84401,0.0666 -1.87557,0.0439 l -1.87556,-0.0411 -1.20773,-2.64623 c -0.66424,-1.45542 -1.33788,-2.82915 -1.49697,-3.05272 -0.3764,-0.52895 -0.93392,-0.80321 -1.88539,-0.92743 l -0.7702,-0.10055 v 3.40021 3.40022 h -1.56835 -1.56836 z m 6.49748,-1.40513 c 1.15785,-0.58632 1.58863,-2.16963 0.85419,-3.13952 -0.53131,-0.70164 -1.1137,-0.91637 -2.72194,-1.0036 l -1.49302,-0.081 v 2.31425 2.31427 l 1.38165,-0.0509 c 1.02523,-0.0378 1.53578,-0.129 1.97912,-0.35349 z m 7.54306,1.42291 v -8.10346 h 3.12357 c 3.51489,0 4.87172,0.18202 6.22758,0.83546 2.4187,1.16564 3.65357,3.89483 3.44679,7.61775 -0.1849,3.32893 -1.35069,5.45479 -3.65032,6.65645 -1.5207,0.79464 -2.33703,0.93583 -5.89888,1.02026 l -3.24874,0.077 z m 6.63336,5.17943 c 0.98049,-0.31823 1.89455,-1.23466 2.33811,-2.34416 0.30045,-0.75154 0.34829,-1.1354 0.35557,-2.85305 0.0108,-2.55522 -0.23806,-3.44535 -1.23875,-4.43028 -0.858,-0.84447 -1.55033,-1.05924 -3.45791,-1.07268 l -1.41899,-0.01 -0.0392,5.36531 c -0.0216,2.95092 -0.003,5.45792 0.041,5.57112 0.10468,0.26852 2.35425,0.1197 3.4202,-0.22626 z m 23.53885,1.63886 v -1.2496 h 1.86709 1.86709 v -5.58647 -5.58646 h -1.86709 -1.86709 v -1.24961 -1.24961 h 5.37722 5.37723 v 1.24961 1.24961 h -1.86709 -1.8671 v 5.58646 5.58647 h 1.8671 1.86709 v 1.2496 1.24961 h -5.37723 -5.37722 z m 13.89116,-6.83607 v -8.08568 h 1.99207 1.99206 l 2.18428,4.59413 c 1.20136,2.52678 2.41784,5.09031 2.70328,5.69673 l 0.51899,1.1026 0.01,-5.69673 0.01,-5.69673 h 1.49495 1.49495 l -0.0386,8.04892 -0.0386,8.04893 -1.91204,0.0412 -1.91205,0.0412 -1.01011,-2.09937 c -0.55555,-1.15465 -1.7788,-3.73993 -2.71834,-5.74508 l -1.70824,-3.6457 -0.0391,5.74063 -0.0391,5.74062 h -1.49194 -1.49194 z m -53.99631,-12.86341 c -10.18492,-1.42149 -18.41858,-8.37441 -20.97826,-17.71504 -1.20013,-4.37946 -1.06394,-9.11191 0.38713,-13.45163 1.9679,-5.88545 6.66387,-11.12112 12.59332,-14.04067 7.75137,-3.81664 17.65963,-3.41319 25.56802,1.04107 3.84601,2.16621 7.34929,5.431 10.87303,10.13285 0.75747,1.01072 1.42681,1.85553 1.48744,1.87738 0.0606,0.0218 0.50539,-0.5074 0.98835,-1.17611 3.4941,-4.83779 7.47679,-8.62043 11.40709,-10.83412 7.90839,-4.45426 17.81665,-4.85771 25.56802,-1.04107 4.75146,2.33953 9.00821,6.44628 11.2606,10.86379 1.33766,2.62349 2.25769,5.91926 2.45942,8.81024 0.81514,11.6818 -7.00536,22.01619 -18.92765,25.01192 -3.32386,0.8352 -8.9495,0.97577 -12.33639,0.30825 -7.3742,-1.45336 -12.92424,-5.40517 -18.48936,-13.16504 -0.69586,-0.97028 -1.39175,-1.97915 -1.54642,-2.24194 -0.15467,-0.26278 -0.31714,-0.47548 -0.36104,-0.47267 -0.0439,0.003 -0.64971,0.84629 -1.34624,1.8744 -5.43128,8.01682 -11.31156,12.39281 -18.73202,13.94002 -1.55176,0.32355 -2.27679,0.38503 -5.09528,0.43206 -2.30885,0.0385 -3.73029,-0.007 -4.77976,-0.15363 z m 6.62728,-8.31138 c 0.82816,-0.0837 2.02835,-0.28124 2.66709,-0.43909 1.45413,-0.35938 3.82451,-1.5108 5.19427,-2.52313 1.32442,-0.97883 3.44499,-3.06211 4.76108,-4.67735 0.88261,-1.08323 4.36493,-6.11899 5.29601,-7.65853 l 0.31959,-0.52843 -1.20256,-1.80977 c -4.13583,-6.22413 -7.56226,-9.62363 -11.71337,-11.62129 -4.52553,-2.17786 -10.66928,-2.35651 -15.33241,-0.44585 -3.42982,1.40532 -6.53573,4.23492 -8.16231,7.43614 -3.37303,6.63839 -1.44567,14.48268 4.67443,19.02485 1.4511,1.07695 4.01966,2.28559 5.82533,2.7411 1.29452,0.32656 3.13464,0.53335 5.62279,0.63187 0.29937,0.0118 1.22189,-0.0469 2.05006,-0.13052 z m -10.22084,-13.85702 c -0.0407,-0.10446 -0.0554,-1.21257 -0.0327,-2.46246 l 0.0414,-2.27252 7.65508,-0.0381 7.65508,-0.0381 v 2.50054 2.50055 h -7.62242 c -6.09227,0 -7.63729,-0.0381 -7.69648,-0.18994 z m 60.87595,13.86427 c 2.79094,-0.17882 4.63332,-0.63414 6.79622,-1.67956 8.11578,-3.92271 11.31318,-12.9983 7.29213,-20.69813 -0.86724,-1.66068 -1.80266,-2.86279 -3.32291,-4.27035 -2.95138,-2.73259 -6.56025,-4.17227 -10.86399,-4.33394 -8.44999,-0.31742 -14.1289,3.21601 -20.61028,12.82378 -0.49092,0.7277 -1.03843,1.56029 -1.21671,1.85018 l -0.32415,0.52707 0.81997,1.28538 c 3.74544,5.87136 6.67471,9.40557 9.55502,11.52828 2.18604,1.61106 4.92414,2.66944 7.63339,2.95062 1.65273,0.17153 1.81457,0.17216 4.24131,0.0167 z m -4.77975,-11.24863 v -2.27869 h -2.3152 -2.31519 v -2.64622 -2.64623 h 2.31519 2.3152 v -2.27869 -2.27869 h 2.68861 2.68862 v 2.27869 2.27869 h 2.39332 2.39332 l -0.0408,2.60948 -0.0408,2.60947 -2.35254,0.0405 -2.35253,0.0405 v 2.27495 2.27496 h -2.68862 -2.68861 z m 23.74941,-25.13911 c 0,-0.92128 -0.0134,-0.95558 -0.37342,-0.95558 -0.20538,0 -0.37341,-0.0662 -0.37341,-0.14702 0,-0.0829 0.42321,-0.147 0.97088,-0.147 0.54769,0 0.9709,0.0641 0.9709,0.147 0,0.0809 -0.16804,0.14702 -0.37342,0.14702 -0.36002,0 -0.37342,0.0343 -0.37342,0.95558 0,0.75139 -0.0479,0.95558 -0.22406,0.95558 -0.17617,0 -0.22405,-0.20419 -0.22405,-0.95558 z m 1.34431,-0.15724 c 0,-1.06918 0.0131,-1.11097 0.33528,-1.06584 0.26536,0.0372 0.37887,0.20791 0.54439,0.8188 0.11502,0.42449 0.25068,0.77181 0.30147,0.77181 0.0508,0 0.19257,-0.34646 0.31506,-0.76991 0.14559,-0.50333 0.31301,-0.78704 0.48351,-0.81935 0.22962,-0.0435 0.2608,0.0837 0.2608,1.06394 0,0.64423 -0.0629,1.11337 -0.14936,1.11337 -0.0822,0 -0.15348,-0.38039 -0.1585,-0.84532 l -0.009,-0.84532 -0.25757,0.80857 c -0.14854,0.46632 -0.3447,0.80856 -0.46342,0.80856 -0.11322,0 -0.32407,-0.33078 -0.46857,-0.73506 l -0.26271,-0.73506 -0.0116,0.77182 c -0.009,0.58298 -0.0664,0.77181 -0.23562,0.77181 -0.17943,0 -0.22405,-0.22166 -0.22405,-1.11282 z"
       id="path2487" /><rect
       style="fill:none;stroke:#ff0000;stroke-opacity:1"
       id="rect2809"
       width="19.392019"
       height="31.559563"
       x="494.88428"
       y="786.70764" /></g></svg>
